<svg xmlns="http://www.w3.org/2000/svg" xmlns:xlink="http://www.w3.org/1999/xlink" version="1.1" width="256" height="256" viewBox="0 0 256 256" xml:space="preserve">

<defs>
</defs>
<g style="stroke: none; stroke-width: 0; stroke-dasharray: none; stroke-linecap: butt; stroke-linejoin: miter; stroke-miterlimit: 10; fill: none; fill-rule: nonzero; opacity: 1;" transform="translate(1.4065934065934016 1.4065934065934016) scale(2.81 2.81)" >
	<path d="M 45 90 C 20.187 90 0 69.813 0 45 C 0 20.187 20.187 0 45 0 c 24.813 0 45 20.187 45 45 C 90 69.813 69.813 90 45 90 z M 45 4 C 22.393 4 4 22.393 4 45 s 18.393 41 41 41 s 41 -18.393 41 -41 S 67.607 4 45 4 z" style="stroke: none; stroke-width: 1; stroke-dasharray: none; stroke-linecap: butt; stroke-linejoin: miter; stroke-miterlimit: 10; fill: rgb(0,0,0); fill-rule: nonzero; opacity: 1;" transform=" matrix(1 0 0 1 0 0) " stroke-linecap="round" />
	<path d="M 57.433 70.102 H 32.567 c -1.104 0 -2 -0.896 -2 -2 s 0.896 -2 2 -2 h 24.865 c 1.104 0 2 0.896 2 2 S 58.537 70.102 57.433 70.102 z" style="stroke: none; stroke-width: 1; stroke-dasharray: none; stroke-linecap: butt; stroke-linejoin: miter; stroke-miterlimit: 10; fill: rgb(0,0,0); fill-rule: nonzero; opacity: 1;" transform=" matrix(1 0 0 1 0 0) " stroke-linecap="round" />
	<path d="M 19 33.406 c 1.469 -0.623 2.741 -1.01 3.875 -1.463 c 1.136 -0.439 2.106 -0.9 3.011 -1.44 c 0.897 -0.553 1.757 -1.194 2.674 -1.994 c 0.929 -0.792 1.866 -1.735 3.107 -2.741 c 0.331 1.558 0.101 3.104 -0.531 4.546 c -0.636 1.432 -1.75 2.751 -3.185 3.614 c -1.436 0.862 -3.12 1.231 -4.683 1.125 C 21.697 34.938 20.225 34.421 19 33.406 z" style="stroke: none; stroke-width: 1; stroke-dasharray: none; stroke-linecap: butt; stroke-linejoin: miter; stroke-miterlimit: 10; fill: rgb(0,0,0); fill-rule: nonzero; opacity: 1;" transform=" matrix(1 0 0 1 0 0) " stroke-linecap="round" />
	<path d="M 71 33.406 c -1.225 1.015 -2.697 1.532 -4.267 1.647 c -1.563 0.106 -3.248 -0.263 -4.683 -1.125 c -1.436 -0.863 -2.549 -2.181 -3.185 -3.614 c -0.632 -1.442 -0.862 -2.987 -0.531 -4.546 c 1.241 1.006 2.178 1.949 3.107 2.741 c 0.918 0.8 1.777 1.441 2.674 1.994 c 0.905 0.54 1.875 1.001 3.011 1.44 C 68.259 32.397 69.531 32.783 71 33.406 z" style="stroke: none; stroke-width: 1; stroke-dasharray: none; stroke-linecap: butt; stroke-linejoin: miter; stroke-miterlimit: 10; fill: rgb(0,0,0); fill-rule: nonzero; opacity: 1;" transform=" matrix(1 0 0 1 0 0) " stroke-linecap="round" />
	<circle cx="30.133" cy="44.323" r="4.633" style="stroke: none; stroke-width: 1; stroke-dasharray: none; stroke-linecap: butt; stroke-linejoin: miter; stroke-miterlimit: 10; fill: rgb(0,0,0); fill-rule: nonzero; opacity: 1;" transform="  matrix(1 0 0 1 0 0) "/>
	<circle cx="59.863" cy="44.323" r="4.633" style="stroke: none; stroke-width: 1; stroke-dasharray: none; stroke-linecap: butt; stroke-linejoin: miter; stroke-miterlimit: 10; fill: rgb(0,0,0); fill-rule: nonzero; opacity: 1;" transform="  matrix(1 0 0 1 0 0) "/>
</g>
</svg>