<svg xmlns="http://www.w3.org/2000/svg" xmlns:xlink="http://www.w3.org/1999/xlink" version="1.1" width="256" height="256" viewBox="0 0 256 256" xml:space="preserve">

<defs>
</defs>
<g style="stroke: none; stroke-width: 0; stroke-dasharray: none; stroke-linecap: butt; stroke-linejoin: miter; stroke-miterlimit: 10; fill: none; fill-rule: nonzero; opacity: 1;" transform="translate(1.4065934065934016 1.4065934065934016) scale(2.81 2.81)" >
	<path d="M 45 0 c -9.447 0 -18.388 2.859 -26.009 8.28 c -0.682 -1.345 -1.256 -2.754 -1.725 -4.239 c -0.35 -1.105 -1.363 -1.848 -2.523 -1.848 c -1.158 0 -2.171 0.741 -2.524 1.849 c -1.246 3.943 -3.222 7.356 -6.048 10.442 l -0.188 0.208 c -1.84 2.112 -2.853 4.82 -2.853 7.624 c 0 1.505 0.297 2.939 0.82 4.26 C 1.339 32.38 0 38.57 0 45 c 0 24.813 20.187 45 45 45 c 24.813 0 45 -20.187 45 -45 C 90 20.187 69.813 0 45 0 z M 8.993 17.326 l 0.136 -0.15 c 2.379 -2.598 4.233 -5.406 5.614 -8.514 c 1.367 3.075 3.195 5.856 5.535 8.428 l 0.131 0.158 c 1.255 1.401 1.946 3.201 1.946 5.068 c 0 4.198 -3.415 7.613 -7.613 7.613 S 7.13 26.513 7.13 22.315 C 7.13 20.478 7.794 18.703 8.993 17.326 z M 45 86 C 22.393 86 4 67.607 4 45 c 0 -4.988 0.889 -9.816 2.616 -14.404 c 2.096 2.058 4.965 3.332 8.127 3.332 c 6.403 0 11.613 -5.209 11.613 -11.613 c 0 -2.816 -1.026 -5.529 -2.892 -7.653 c -0.049 -0.064 -0.101 -0.126 -0.157 -0.188 c -0.817 -0.893 -1.556 -1.818 -2.234 -2.771 C 28.065 6.658 36.298 4 45 4 c 22.607 0 41 18.393 41 41 S 67.607 86 45 86 z" style="stroke: none; stroke-width: 1; stroke-dasharray: none; stroke-linecap: butt; stroke-linejoin: miter; stroke-miterlimit: 10; fill: rgb(0,0,0); fill-rule: nonzero; opacity: 1;" transform=" matrix(1 0 0 1 0 0) " stroke-linecap="round" />
	<path d="M 45 60.795 c -7.096 0 -14.031 2.474 -19.528 6.965 c -0.855 0.699 -0.982 1.959 -0.283 2.814 c 0.396 0.483 0.97 0.734 1.55 0.734 c 0.445 0 0.893 -0.147 1.265 -0.451 c 4.785 -3.909 10.821 -6.063 16.997 -6.063 s 12.212 2.153 16.996 6.063 c 0.856 0.699 2.114 0.572 2.814 -0.283 c 0.699 -0.855 0.572 -2.115 -0.283 -2.814 C 59.03 63.269 52.096 60.795 45 60.795 z" style="stroke: none; stroke-width: 1; stroke-dasharray: none; stroke-linecap: butt; stroke-linejoin: miter; stroke-miterlimit: 10; fill: rgb(0,0,0); fill-rule: nonzero; opacity: 1;" transform=" matrix(1 0 0 1 0 0) " stroke-linecap="round" />
	<path d="M 40.233 33.971 c 0.262 -1.073 -0.396 -2.155 -1.468 -2.417 c -1.074 -0.261 -2.155 0.396 -2.417 1.468 c -0.688 2.818 -2.276 5.231 -4.591 6.977 c -2.314 1.745 -5.063 2.604 -7.969 2.496 c -1.099 -0.04 -2.033 0.817 -2.076 1.921 c -0.043 1.104 0.817 2.033 1.921 2.076 c 0.211 0.008 0.422 0.013 0.634 0.013 c 3.559 0 7.052 -1.165 9.899 -3.313 C 37.181 40.917 39.336 37.642 40.233 33.971 z" style="stroke: none; stroke-width: 1; stroke-dasharray: none; stroke-linecap: butt; stroke-linejoin: miter; stroke-miterlimit: 10; fill: rgb(0,0,0); fill-rule: nonzero; opacity: 1;" transform=" matrix(1 0 0 1 0 0) " stroke-linecap="round" />
	<path d="M 66.212 42.494 c -2.857 0.112 -5.688 -0.775 -7.969 -2.496 c -2.314 -1.746 -3.902 -4.158 -4.59 -6.977 c -0.263 -1.073 -1.347 -1.729 -2.418 -1.468 c -1.073 0.262 -1.73 1.344 -1.469 2.417 c 0.897 3.671 3.052 6.946 6.068 9.221 c 2.847 2.147 6.339 3.313 9.899 3.313 c 0.211 0 0.422 -0.005 0.634 -0.013 c 1.104 -0.043 1.963 -0.973 1.92 -2.076 C 68.246 43.312 67.354 42.449 66.212 42.494 z" style="stroke: none; stroke-width: 1; stroke-dasharray: none; stroke-linecap: butt; stroke-linejoin: miter; stroke-miterlimit: 10; fill: rgb(0,0,0); fill-rule: nonzero; opacity: 1;" transform=" matrix(1 0 0 1 0 0) " stroke-linecap="round" />
</g>
</svg>