<svg xmlns="http://www.w3.org/2000/svg" xmlns:xlink="http://www.w3.org/1999/xlink" version="1.1" width="256" height="256" viewBox="0 0 256 256" xml:space="preserve">

<defs>
</defs>
<g style="stroke: none; stroke-width: 0; stroke-dasharray: none; stroke-linecap: butt; stroke-linejoin: miter; stroke-miterlimit: 10; fill: none; fill-rule: nonzero; opacity: 1;" transform="translate(1.4065934065934016 1.4065934065934016) scale(2.81 2.81)" >
	<path d="M 45 90 C 20.187 90 0 69.813 0 45 C 0 20.187 20.187 0 45 0 c 24.813 0 45 20.187 45 45 C 90 69.813 69.813 90 45 90 z M 45 4 C 22.393 4 4 22.393 4 45 s 18.393 41 41 41 s 41 -18.393 41 -41 S 67.607 4 45 4 z" style="stroke: none; stroke-width: 1; stroke-dasharray: none; stroke-linecap: butt; stroke-linejoin: miter; stroke-miterlimit: 10; fill: rgb(0,0,0); fill-rule: nonzero; opacity: 1;" transform=" matrix(1 0 0 1 0 0) " stroke-linecap="round" />
	<path d="M 58.926 70.076 c -0.406 0 -0.816 -0.123 -1.171 -0.38 c -8.582 -6.214 -16.927 -6.214 -25.51 0 c -0.895 0.647 -2.145 0.446 -2.793 -0.447 c -0.647 -0.895 -0.448 -2.145 0.447 -2.793 c 10.019 -7.256 20.181 -7.256 30.201 0 c 0.895 0.648 1.095 1.898 0.447 2.793 C 60.156 69.789 59.546 70.076 58.926 70.076 z" style="stroke: none; stroke-width: 1; stroke-dasharray: none; stroke-linecap: butt; stroke-linejoin: miter; stroke-miterlimit: 10; fill: rgb(0,0,0); fill-rule: nonzero; opacity: 1;" transform=" matrix(1 0 0 1 0 0) " stroke-linecap="round" />
	<path d="M 21.667 57.18 c -0.487 0 -0.976 -0.177 -1.361 -0.535 c -0.809 -0.752 -0.855 -2.018 -0.104 -2.826 c 2.997 -3.226 7.813 -5.303 13.836 -6.026 c -3.537 -2.064 -8.226 -2.751 -11.665 -2.081 c -1.092 0.209 -2.135 -0.497 -2.346 -1.581 c -0.211 -1.084 0.497 -2.134 1.581 -2.346 c 6.047 -1.175 14.807 0.939 19.004 6.519 c 0.456 0.605 0.529 1.417 0.191 2.096 c -0.339 0.678 -1.032 1.106 -1.79 1.106 c -7.224 0 -12.864 1.789 -15.882 5.036 C 22.738 56.965 22.204 57.18 21.667 57.18 z" style="stroke: none; stroke-width: 1; stroke-dasharray: none; stroke-linecap: butt; stroke-linejoin: miter; stroke-miterlimit: 10; fill: rgb(0,0,0); fill-rule: nonzero; opacity: 1;" transform=" matrix(1 0 0 1 0 0) " stroke-linecap="round" />
	<path d="M 68.333 57.18 c -0.536 0 -1.071 -0.215 -1.465 -0.639 c -3.019 -3.247 -8.659 -5.036 -15.883 -5.036 c -0.758 0 -1.451 -0.429 -1.789 -1.106 c -0.339 -0.679 -0.265 -1.49 0.19 -2.096 c 4.197 -5.579 12.964 -7.692 19.003 -6.519 c 1.085 0.211 1.792 1.261 1.581 2.346 c -0.211 1.084 -1.266 1.787 -2.345 1.581 c -3.443 -0.671 -8.127 0.017 -11.664 2.081 c 6.022 0.724 10.838 2.801 13.836 6.026 c 0.752 0.809 0.706 2.074 -0.104 2.826 C 69.31 57.003 68.821 57.18 68.333 57.18 z" style="stroke: none; stroke-width: 1; stroke-dasharray: none; stroke-linecap: butt; stroke-linejoin: miter; stroke-miterlimit: 10; fill: rgb(0,0,0); fill-rule: nonzero; opacity: 1;" transform=" matrix(1 0 0 1 0 0) " stroke-linecap="round" />
	<path d="M 27.864 36.629 c -1.189 0 -2.396 -0.229 -3.56 -0.712 c -1.021 -0.423 -1.504 -1.594 -1.081 -2.614 c 0.423 -1.021 1.594 -1.504 2.614 -1.081 c 2.709 1.124 5.826 -0.165 6.95 -2.873 c 0.423 -1.021 1.594 -1.504 2.614 -1.081 c 1.021 0.423 1.504 1.594 1.081 2.614 C 34.995 34.465 31.519 36.629 27.864 36.629 z" style="stroke: none; stroke-width: 1; stroke-dasharray: none; stroke-linecap: butt; stroke-linejoin: miter; stroke-miterlimit: 10; fill: rgb(0,0,0); fill-rule: nonzero; opacity: 1;" transform=" matrix(1 0 0 1 0 0) " stroke-linecap="round" />
	<path d="M 62.125 36.634 c -1.206 0 -2.412 -0.237 -3.56 -0.711 c -2.301 -0.951 -4.093 -2.74 -5.047 -5.039 c -0.423 -1.021 0.061 -2.19 1.081 -2.614 c 1.023 -0.423 2.191 0.061 2.614 1.081 c 0.544 1.312 1.566 2.333 2.879 2.875 c 1.313 0.543 2.758 0.542 4.07 -0.003 c 1.024 -0.423 2.189 0.061 2.614 1.081 c 0.423 1.02 -0.061 2.19 -1.081 2.614 C 64.545 36.396 63.335 36.634 62.125 36.634 z" style="stroke: none; stroke-width: 1; stroke-dasharray: none; stroke-linecap: butt; stroke-linejoin: miter; stroke-miterlimit: 10; fill: rgb(0,0,0); fill-rule: nonzero; opacity: 1;" transform=" matrix(1 0 0 1 0 0) " stroke-linecap="round" />
</g>
</svg>